<svg width="113" height="46" viewBox="0 0 113 46" fill="none" xmlns="http://www.w3.org/2000/svg">
<path d="M9.6 30.3C8.72 30.3 7.84 30.23 6.96 30.09C6.08 29.97 5.25 29.78 4.47 29.52C3.69 29.24 2.99 28.9 2.37 28.5C2.01 28.26 1.76 27.97 1.62 27.63C1.48 27.29 1.43 26.96 1.47 26.64C1.53 26.3 1.66 26.01 1.86 25.77C2.08 25.51 2.35 25.35 2.67 25.29C2.99 25.23 3.34 25.32 3.72 25.56C4.6 26.08 5.53 26.46 6.51 26.7C7.49 26.94 8.52 27.06 9.6 27.06C11.18 27.06 12.33 26.8 13.05 26.28C13.77 25.74 14.13 25.05 14.13 24.21C14.13 23.51 13.87 22.96 13.35 22.56C12.85 22.16 11.98 21.83 10.74 21.57L7.44 20.88C5.54 20.48 4.12 19.81 3.18 18.87C2.26 17.91 1.8 16.65 1.8 15.09C1.8 14.11 2 13.22 2.4 12.42C2.8 11.62 3.36 10.93 4.08 10.35C4.82 9.77 5.69 9.33 6.69 9.03C7.71 8.71 8.83 8.55 10.05 8.55C11.25 8.55 12.39 8.7 13.47 9C14.55 9.3 15.52 9.74 16.38 10.32C16.7 10.54 16.91 10.81 17.01 11.13C17.13 11.45 17.16 11.77 17.1 12.09C17.04 12.39 16.9 12.65 16.68 12.87C16.46 13.09 16.18 13.22 15.84 13.26C15.52 13.3 15.15 13.2 14.73 12.96C13.99 12.54 13.24 12.24 12.48 12.06C11.72 11.88 10.9 11.79 10.02 11.79C9.1 11.79 8.31 11.92 7.65 12.18C6.99 12.44 6.48 12.81 6.12 13.29C5.78 13.75 5.61 14.3 5.61 14.94C5.61 15.66 5.85 16.24 6.33 16.68C6.81 17.1 7.63 17.43 8.79 17.67L12.06 18.36C14.04 18.78 15.51 19.44 16.47 20.34C17.45 21.24 17.94 22.44 17.94 23.94C17.94 24.9 17.74 25.77 17.34 26.55C16.96 27.33 16.4 28 15.66 28.56C14.94 29.12 14.07 29.55 13.05 29.85C12.03 30.15 10.88 30.3 9.6 30.3Z" fill="#CEA029"/>
<path d="M22.7358 35.64C22.1358 35.64 21.6758 35.48 21.3558 35.16C21.0358 34.84 20.8758 34.37 20.8758 33.75V16.98C20.8758 16.36 21.0358 15.89 21.3558 15.57C21.6758 15.25 22.1258 15.09 22.7058 15.09C23.3058 15.09 23.7658 15.25 24.0858 15.57C24.4058 15.89 24.5658 16.36 24.5658 16.98V19.32L24.2358 18.42C24.5358 17.4 25.1458 16.58 26.0658 15.96C27.0058 15.34 28.0958 15.03 29.3358 15.03C30.6158 15.03 31.7358 15.34 32.6958 15.96C33.6758 16.58 34.4358 17.46 34.9758 18.6C35.5158 19.72 35.7858 21.07 35.7858 22.65C35.7858 24.21 35.5158 25.57 34.9758 26.73C34.4358 27.87 33.6858 28.75 32.7258 29.37C31.7658 29.99 30.6358 30.3 29.3358 30.3C28.1158 30.3 27.0458 30 26.1258 29.4C25.2058 28.78 24.5858 27.98 24.2658 27H24.6258V33.75C24.6258 34.37 24.4558 34.84 24.1158 35.16C23.7958 35.48 23.3358 35.64 22.7358 35.64ZM28.2858 27.45C29.0258 27.45 29.6758 27.27 30.2358 26.91C30.7958 26.55 31.2258 26.02 31.5258 25.32C31.8458 24.6 32.0058 23.71 32.0058 22.65C32.0058 21.05 31.6658 19.86 30.9858 19.08C30.3058 18.28 29.4058 17.88 28.2858 17.88C27.5458 17.88 26.8958 18.06 26.3358 18.42C25.7758 18.76 25.3358 19.29 25.0158 20.01C24.7158 20.71 24.5658 21.59 24.5658 22.65C24.5658 24.23 24.9058 25.43 25.5858 26.25C26.2658 27.05 27.1658 27.45 28.2858 27.45ZM45.5541 30.3C44.0341 30.3 42.7141 29.99 41.5941 29.37C40.4741 28.75 39.6041 27.87 38.9841 26.73C38.3641 25.57 38.0541 24.21 38.0541 22.65C38.0541 21.47 38.2241 20.42 38.5641 19.5C38.9241 18.56 39.4341 17.76 40.0941 17.1C40.7541 16.42 41.5441 15.91 42.4641 15.57C43.3841 15.21 44.4141 15.03 45.5541 15.03C47.0741 15.03 48.3941 15.34 49.5141 15.96C50.6341 16.58 51.5041 17.46 52.1241 18.6C52.7441 19.74 53.0541 21.09 53.0541 22.65C53.0541 23.83 52.8741 24.89 52.5141 25.83C52.1741 26.77 51.6741 27.58 51.0141 28.26C50.3541 28.92 49.5641 29.43 48.6441 29.79C47.7241 30.13 46.6941 30.3 45.5541 30.3ZM45.5541 27.45C46.2941 27.45 46.9441 27.27 47.5041 26.91C48.0641 26.55 48.4941 26.02 48.7941 25.32C49.1141 24.6 49.2741 23.71 49.2741 22.65C49.2741 21.05 48.9341 19.86 48.2541 19.08C47.5741 18.28 46.6741 17.88 45.5541 17.88C44.8141 17.88 44.1641 18.06 43.6041 18.42C43.0441 18.76 42.6041 19.29 42.2841 20.01C41.9841 20.71 41.8341 21.59 41.8341 22.65C41.8341 24.23 42.1741 25.43 42.8541 26.25C43.5341 27.05 44.4341 27.45 45.5541 27.45ZM58.0092 30.21C57.4092 30.21 56.9492 30.03 56.6292 29.67C56.3092 29.31 56.1492 28.81 56.1492 28.17V17.16C56.1492 16.5 56.3092 16 56.6292 15.66C56.9492 15.3 57.4092 15.12 58.0092 15.12C58.6092 15.12 59.0692 15.3 59.3892 15.66C59.7292 16 59.8992 16.5 59.8992 17.16V28.17C59.8992 28.81 59.7392 29.31 59.4192 29.67C59.0992 30.03 58.6292 30.21 58.0092 30.21ZM58.0092 12.33C57.3092 12.33 56.7592 12.16 56.3592 11.82C55.9792 11.46 55.7892 10.97 55.7892 10.35C55.7892 9.71 55.9792 9.22 56.3592 8.88C56.7592 8.54 57.3092 8.37 58.0092 8.37C58.7292 8.37 59.2792 8.54 59.6592 8.88C60.0392 9.22 60.2292 9.71 60.2292 10.35C60.2292 10.97 60.0392 11.46 59.6592 11.82C59.2792 12.16 58.7292 12.33 58.0092 12.33ZM68.8057 30.3C67.1457 30.3 65.8957 29.83 65.0557 28.89C64.2157 27.93 63.7957 26.53 63.7957 24.69V10.5C63.7957 9.88 63.9557 9.41 64.2757 9.09C64.5957 8.77 65.0557 8.61 65.6557 8.61C66.2557 8.61 66.7157 8.77 67.0357 9.09C67.3757 9.41 67.5457 9.88 67.5457 10.5V24.51C67.5457 25.43 67.7357 26.11 68.1157 26.55C68.5157 26.99 69.0757 27.21 69.7957 27.21C69.9557 27.21 70.1057 27.21 70.2457 27.21C70.3857 27.19 70.5257 27.17 70.6657 27.15C70.9457 27.11 71.1357 27.19 71.2357 27.39C71.3357 27.57 71.3857 27.95 71.3857 28.53C71.3857 29.03 71.2857 29.42 71.0857 29.7C70.8857 29.98 70.5557 30.15 70.0957 30.21C69.8957 30.23 69.6857 30.25 69.4657 30.27C69.2457 30.29 69.0257 30.3 68.8057 30.3ZM80.4593 30.3C78.7993 30.3 77.3693 29.99 76.1693 29.37C74.9693 28.75 74.0393 27.87 73.3793 26.73C72.7393 25.59 72.4193 24.24 72.4193 22.68C72.4193 21.16 72.7293 19.83 73.3493 18.69C73.9893 17.55 74.8593 16.66 75.9593 16.02C77.0793 15.36 78.3493 15.03 79.7693 15.03C80.8093 15.03 81.7393 15.2 82.5593 15.54C83.3993 15.88 84.1093 16.37 84.6893 17.01C85.2893 17.65 85.7393 18.43 86.0393 19.35C86.3593 20.25 86.5193 21.27 86.5193 22.41C86.5193 22.77 86.3893 23.05 86.1293 23.25C85.8893 23.43 85.5393 23.52 85.0793 23.52H75.4493V21.36H83.8793L83.3993 21.81C83.3993 20.89 83.2593 20.12 82.9793 19.5C82.7193 18.88 82.3293 18.41 81.8093 18.09C81.3093 17.75 80.6793 17.58 79.9193 17.58C79.0793 17.58 78.3593 17.78 77.7593 18.18C77.1793 18.56 76.7293 19.11 76.4093 19.83C76.1093 20.53 75.9593 21.37 75.9593 22.35V22.56C75.9593 24.2 76.3393 25.43 77.0993 26.25C77.8793 27.05 79.0193 27.45 80.5193 27.45C81.0393 27.45 81.6193 27.39 82.2593 27.27C82.9193 27.13 83.5393 26.9 84.1193 26.58C84.5393 26.34 84.9093 26.24 85.2293 26.28C85.5493 26.3 85.7993 26.41 85.9793 26.61C86.1793 26.81 86.2993 27.06 86.3393 27.36C86.3793 27.64 86.3193 27.93 86.1593 28.23C86.0193 28.53 85.7693 28.79 85.4093 29.01C84.7093 29.45 83.8993 29.78 82.9793 30C82.0793 30.2 81.2393 30.3 80.4593 30.3ZM91.4091 30.24C90.7891 30.24 90.3091 30.08 89.9691 29.76C89.6491 29.42 89.4891 28.94 89.4891 28.32V16.98C89.4891 16.36 89.6491 15.89 89.9691 15.57C90.2891 15.25 90.7391 15.09 91.3191 15.09C91.8991 15.09 92.3491 15.25 92.6691 15.57C92.9891 15.89 93.1491 16.36 93.1491 16.98V18.87H92.8491C93.1291 17.67 93.6791 16.76 94.4991 16.14C95.3191 15.52 96.4091 15.15 97.7691 15.03C98.1891 14.99 98.5191 15.1 98.7591 15.36C99.0191 15.6 99.1691 15.98 99.2091 16.5C99.2491 17 99.1291 17.41 98.8491 17.73C98.5891 18.03 98.1891 18.21 97.6491 18.27L96.9891 18.33C95.7691 18.45 94.8491 18.83 94.2291 19.47C93.6091 20.09 93.2991 20.97 93.2991 22.11V28.32C93.2991 28.94 93.1391 29.42 92.8191 29.76C92.4991 30.08 92.0291 30.24 91.4091 30.24Z" fill="#3E529A"/>
<circle cx="58" cy="11" r="3" fill="#CEA029"/>

<path fill="current" fill-rule="evenodd" d="...." />
</svg>
